<svg xmlns="http://www.w3.org/2000/svg" viewBox="0 0 218.76 34.23"><defs><style>.cls-1{fill:#188ea2;}.cls-2{fill:#343838;}.cls-3{fill:#198fa1;}.cls-4{fill:#50c8e9;}.cls-5{fill:#17616c;}.cls-6{fill:#125799;}</style></defs><title>Asset 1</title><g id="Layer_2" data-name="Layer 2"><g id="Layer_1-2" data-name="Layer 1"><g id="_Group_" data-name="&lt;Group&gt;"><g id="_Group_2" data-name="&lt;Group&gt;"><g id="_Group_3" data-name="&lt;Group&gt;"><g id="_Group_4" data-name="&lt;Group&gt;"><g id="_Group_5" data-name="&lt;Group&gt;"><polygon id="_Path_" data-name="&lt;Path&gt;" class="cls-1" points="188.18 0.34 175.62 6.41 175.62 3.26 178.28 0.34 188.18 0.34"/></g><g id="_Group_6" data-name="&lt;Group&gt;"><polygon id="_Path_2" data-name="&lt;Path&gt;" class="cls-2" points="203.82 11.52 203.82 11.97 203.82 12.31 203.49 12.31 203.03 12.31 201.05 12.31 203.59 14.81 203.72 14.94 203.82 15.04 203.82 15.19 203.82 15.38 203.82 27.68 203.82 27.88 203.82 28.02 203.72 28.12 203.58 28.25 200.88 30.84 215.43 30.84 215.43 15.36 215.43 15.02 215.77 15.02 218.76 15.02 218.76 0.32 203.82 0.32 203.82 11.52"/><polygon id="_Path_3" data-name="&lt;Path&gt;" class="cls-3" points="198.28 11.18 199.11 11.18 202.69 11.18 202.69 0.34 191.17 0.34 191.17 15.02 194.06 15.02 194.39 15.02 194.39 15.36 194.39 30.84 199.25 30.84 202.69 27.54 202.69 15.52 198.87 11.76 198.28 11.18"/><polygon id="_Path_4" data-name="&lt;Path&gt;" class="cls-4" points="177.16 18.87 174.72 16.36 174.59 16.22 174.49 16.13 174.49 15.99 174.49 15.8 174.49 7.57 159.56 0.59 159.56 30.87 174.49 30.84 174.49 19.66 174.49 19.21 174.49 18.87 174.83 18.87 175.29 18.87 177.16 18.87"/><polygon id="_Path_5" data-name="&lt;Path&gt;" class="cls-5" points="190.78 16.15 190.38 16.15 190.04 16.15 190.04 15.81 190.04 15.36 190.04 0.7 175.62 7.54 175.62 15.66 179.28 19.43 179.84 20 179.04 20 175.62 20 175.62 30.84 193.26 30.84 193.26 16.15 190.84 16.15 190.78 16.15"/></g></g><g id="_Group_7" data-name="&lt;Group&gt;"><polygon id="_Path_6" data-name="&lt;Path&gt;" class="cls-6" points="190.73 0 190.73 0 190.73 0 190.73 0"/></g></g></g><g id="_Group_8" data-name="&lt;Group&gt;"><g id="_Group_9" data-name="&lt;Group&gt;"><path id="_Compound_Path_" data-name="&lt;Compound Path&gt;" class="cls-5" d="M5.49,7.93a.31.31,0,0,1-.33-.33V2.46a.13.13,0,0,0-.07-.13S5,2.33,5,2.41L3.86,5.57a.4.4,0,0,1-.4.3H2.75a.4.4,0,0,1-.4-.3L1.23,2.41q0-.1-.11-.1s-.07,0-.07.14V7.59A.33.33,0,0,1,1,7.84a.33.33,0,0,1-.24.09H.33a.33.33,0,0,1-.24-.09A.33.33,0,0,1,0,7.59V.71A.33.33,0,0,1,.09.47.33.33,0,0,1,.33.38h1a.38.38,0,0,1,.24.07.44.44,0,0,1,.13.19L3,4.52c0,.07.06.11.11.11s.09,0,.12-.11L4.53.65A.43.43,0,0,1,4.66.45.38.38,0,0,1,4.9.38h1a.33.33,0,0,1,.24.09.33.33,0,0,1,.09.24V7.59a.31.31,0,0,1-.33.33Z"/><path id="_Compound_Path_2" data-name="&lt;Compound Path&gt;" class="cls-5" d="M12.87,5.48a2.7,2.7,0,0,1-.19,1,2.31,2.31,0,0,1-.54.8,2.53,2.53,0,0,1-.83.52,3,3,0,0,1-2.09,0,2.53,2.53,0,0,1-.83-.52,2.31,2.31,0,0,1-.54-.8,2.7,2.7,0,0,1-.19-1V2.82a2.7,2.7,0,0,1,.19-1A2.31,2.31,0,0,1,8.39,1,2.54,2.54,0,0,1,9.22.46a3,3,0,0,1,2.09,0,2.54,2.54,0,0,1,.83.52,2.31,2.31,0,0,1,.54.8,2.7,2.7,0,0,1,.19,1ZM11.82,2.82a1.6,1.6,0,0,0-.4-1.11,1.47,1.47,0,0,0-1.15-.44,1.47,1.47,0,0,0-1.15.44,1.6,1.6,0,0,0-.4,1.11V5.48a1.6,1.6,0,0,0,.4,1.11A1.47,1.47,0,0,0,10.26,7a1.47,1.47,0,0,0,1.15-.44,1.6,1.6,0,0,0,.4-1.11Z"/><path id="_Compound_Path_3" data-name="&lt;Compound Path&gt;" class="cls-5" d="M14.65,7.93a.31.31,0,0,1-.33-.33V.71A.33.33,0,0,1,14.4.47a.33.33,0,0,1,.24-.09h1.94A2.94,2.94,0,0,1,17.7.59a2.57,2.57,0,0,1,.86.56,2.47,2.47,0,0,1,.55.84A2.83,2.83,0,0,1,19.31,3V5.26a2.83,2.83,0,0,1-.19,1.05,2.46,2.46,0,0,1-.55.84,2.56,2.56,0,0,1-.86.56,2.93,2.93,0,0,1-1.12.21ZM18.25,3a1.9,1.9,0,0,0-.12-.7,1.48,1.48,0,0,0-.34-.53,1.46,1.46,0,0,0-.53-.33,2,2,0,0,0-.67-.11H15.48a.1.1,0,0,0-.11.11V6.82a.1.1,0,0,0,.11.11h1.11a2,2,0,0,0,.67-.11,1.5,1.5,0,0,0,.53-.32A1.43,1.43,0,0,0,18.13,6a1.93,1.93,0,0,0,.12-.71Z"/><path id="_Compound_Path_4" data-name="&lt;Compound Path&gt;" class="cls-5" d="M30.91,7.93a.43.43,0,0,1-.41-.3L29.19,4.81A.24.24,0,0,0,29,4.65H27.91a.1.1,0,0,0-.11.11V7.59a.31.31,0,0,1-.33.33h-.39a.31.31,0,0,1-.33-.33V.71a.33.33,0,0,1,.09-.24.33.33,0,0,1,.24-.09h2.27a2.16,2.16,0,0,1,.83.16,2,2,0,0,1,1.12,1.12,2.16,2.16,0,0,1,.16.83,2.1,2.1,0,0,1-1.07,1.86q-.18.1-.08.32l1.33,2.85a.3.3,0,0,1,0,.28.25.25,0,0,1-.23.12ZM29.28,3.65a1.13,1.13,0,0,0,.43-.08,1.08,1.08,0,0,0,.36-.24A1.19,1.19,0,0,0,30.32,3a1.17,1.17,0,0,0,.09-.47,1.08,1.08,0,0,0-.7-1,1.2,1.2,0,0,0-.43-.08H27.92a.1.1,0,0,0-.11.11V3.54a.1.1,0,0,0,.11.11Z"/><path id="_Compound_Path_5" data-name="&lt;Compound Path&gt;" class="cls-5" d="M21.1,7.93a.31.31,0,0,1-.33-.33V.71a.33.33,0,0,1,.09-.24A.33.33,0,0,1,21.1.38h3.66A.33.33,0,0,1,25,.47a.33.33,0,0,1,.09.24V1a.33.33,0,0,1-.09.24.33.33,0,0,1-.24.09H21.93a.1.1,0,0,0-.11.11v2a.1.1,0,0,0,.11.11h2.61a.31.31,0,0,1,.33.33v.33a.31.31,0,0,1-.33.33H21.93a.1.1,0,0,0-.11.11V6.82a.1.1,0,0,0,.11.11H25a.31.31,0,0,1,.33.33v.33a.31.31,0,0,1-.33.33Z"/><path id="_Compound_Path_6" data-name="&lt;Compound Path&gt;" class="cls-5" d="M37.11,7.93a.36.36,0,0,1-.25-.08,1.06,1.06,0,0,1-.19-.25L33.85,2.66q-.06-.09-.12-.07s-.06.05-.06.11V7.59a.31.31,0,0,1-.33.33H33a.31.31,0,0,1-.33-.33V.71a.33.33,0,0,1,.09-.24A.33.33,0,0,1,33,.38h.43a.57.57,0,0,1,.28.06.55.55,0,0,1,.2.22l2.7,4.69a.1.1,0,0,0,.11.06s.06,0,.06-.1V.71a.33.33,0,0,1,.09-.24.33.33,0,0,1,.24-.09h.39a.33.33,0,0,1,.24.09.33.33,0,0,1,.09.24V7.59a.31.31,0,0,1-.33.33Z"/></g><g id="_Group_10" data-name="&lt;Group&gt;"><path id="_Compound_Path_7" data-name="&lt;Compound Path&gt;" class="cls-5" d="M40.36,6.52a.3.3,0,0,1,.24-.1.39.39,0,0,1,.23.1l.2.17a1.45,1.45,0,0,0,.26.17,1.51,1.51,0,0,0,.33.13A1.7,1.7,0,0,0,42,7a1.3,1.3,0,0,0,.88-.29A.93.93,0,0,0,43.27,6a1.07,1.07,0,0,0-.31-.8,3.74,3.74,0,0,0-1-.62,6.29,6.29,0,0,1-.76-.42,2.84,2.84,0,0,1-.58-.5A2,2,0,0,1,40.28,3a2.34,2.34,0,0,1-.13-.8,1.93,1.93,0,0,1,.14-.73,1.84,1.84,0,0,1,.42-.63,2.13,2.13,0,0,1,.67-.44,2.47,2.47,0,0,1,2,.08,3.1,3.1,0,0,1,.72.51.29.29,0,0,1,0,.47l-.26.27a.34.34,0,0,1-.21.12.34.34,0,0,1-.23-.12,2.74,2.74,0,0,0-.44-.31,1.26,1.26,0,0,0-.65-.18,1.18,1.18,0,0,0-.45.08,1.21,1.21,0,0,0-.36.22,1,1,0,0,0-.23.31.82.82,0,0,0-.08.36,1.2,1.2,0,0,0,.07.43,1.07,1.07,0,0,0,.22.35,1.79,1.79,0,0,0,.39.31,4.47,4.47,0,0,0,.58.29,6.35,6.35,0,0,1,.81.42,2.78,2.78,0,0,1,.6.49,1.89,1.89,0,0,1,.37.62,2.34,2.34,0,0,1,.13.8,1.85,1.85,0,0,1-.18.8,2.09,2.09,0,0,1-.49.66,2.47,2.47,0,0,1-.73.45A2.29,2.29,0,0,1,42,8a2.54,2.54,0,0,1-1.18-.23,2.73,2.73,0,0,1-.75-.58A.34.34,0,0,1,40,7a.3.3,0,0,1,.1-.24Z"/><path id="_Compound_Path_8" data-name="&lt;Compound Path&gt;" class="cls-5" d="M47.65,7.93a.31.31,0,0,1-.33-.33V4.93a.23.23,0,0,0-.16-.24,2.45,2.45,0,0,1-1.35-.9,2.66,2.66,0,0,1-.49-1.63V.71a.33.33,0,0,1,.09-.24.33.33,0,0,1,.24-.09H46a.33.33,0,0,1,.24.09.33.33,0,0,1,.09.24V2.16a2.29,2.29,0,0,0,.08.63,1.39,1.39,0,0,0,.26.51,1.27,1.27,0,0,0,.45.34,1.72,1.72,0,0,0,1.3,0,1.27,1.27,0,0,0,.45-.34,1.39,1.39,0,0,0,.26-.51,2.29,2.29,0,0,0,.08-.63V.71a.33.33,0,0,1,.09-.24.33.33,0,0,1,.24-.09H50a.33.33,0,0,1,.24.09.33.33,0,0,1,.09.24V2.16a2.74,2.74,0,0,1-.48,1.62,2.26,2.26,0,0,1-1.31.9.17.17,0,0,0-.12.09.38.38,0,0,0,0,.16V7.59a.31.31,0,0,1-.33.33Z"/><path id="_Compound_Path_9" data-name="&lt;Compound Path&gt;" class="cls-5" d="M51.68,6.52a.3.3,0,0,1,.24-.1.39.39,0,0,1,.23.1l.2.17a1.45,1.45,0,0,0,.26.17,1.51,1.51,0,0,0,.33.13,1.7,1.7,0,0,0,.43,0,1.3,1.3,0,0,0,.88-.29A.93.93,0,0,0,54.58,6a1.07,1.07,0,0,0-.31-.8,3.74,3.74,0,0,0-1-.62,6.29,6.29,0,0,1-.76-.42,2.84,2.84,0,0,1-.58-.5A2,2,0,0,1,51.59,3a2.34,2.34,0,0,1-.13-.8,1.93,1.93,0,0,1,.14-.73A1.84,1.84,0,0,1,52,.87,2.13,2.13,0,0,1,52.7.44a2.47,2.47,0,0,1,2,.08,3.1,3.1,0,0,1,.72.51.29.29,0,0,1,0,.47l-.26.27a.34.34,0,0,1-.21.12.34.34,0,0,1-.23-.12,2.74,2.74,0,0,0-.44-.31,1.26,1.26,0,0,0-.65-.18,1.18,1.18,0,0,0-.45.08,1.21,1.21,0,0,0-.36.22,1,1,0,0,0-.23.31.82.82,0,0,0-.08.36,1.2,1.2,0,0,0,.07.43,1.07,1.07,0,0,0,.22.35,1.79,1.79,0,0,0,.39.31,4.47,4.47,0,0,0,.58.29,6.35,6.35,0,0,1,.81.42,2.78,2.78,0,0,1,.6.49,1.89,1.89,0,0,1,.37.62,2.34,2.34,0,0,1,.13.8,1.85,1.85,0,0,1-.18.8,2.09,2.09,0,0,1-.49.66,2.47,2.47,0,0,1-.73.45,2.29,2.29,0,0,1-.88.17,2.54,2.54,0,0,1-1.18-.23,2.73,2.73,0,0,1-.75-.58.34.34,0,0,1-.1-.22.3.3,0,0,1,.1-.24Z"/><path id="_Compound_Path_10" data-name="&lt;Compound Path&gt;" class="cls-5" d="M58.86,7.93a.31.31,0,0,1-.33-.33V1.49a.1.1,0,0,0-.11-.11H56.75a.33.33,0,0,1-.24-.09A.33.33,0,0,1,56.42,1V.71A.33.33,0,0,1,56.5.47a.33.33,0,0,1,.24-.09h4.6a.33.33,0,0,1,.24.09.33.33,0,0,1,.09.24V1a.33.33,0,0,1-.09.24.33.33,0,0,1-.24.09H59.69a.1.1,0,0,0-.11.11v6.1a.31.31,0,0,1-.33.33Z"/><path id="_Compound_Path_11" data-name="&lt;Compound Path&gt;" class="cls-5" d="M63,7.93a.31.31,0,0,1-.33-.33V.71a.33.33,0,0,1,.09-.24A.33.33,0,0,1,63,.38h3.66a.33.33,0,0,1,.24.09A.33.33,0,0,1,67,.71V1a.33.33,0,0,1-.09.24.33.33,0,0,1-.24.09H63.85a.1.1,0,0,0-.11.11v2a.1.1,0,0,0,.11.11h2.61a.31.31,0,0,1,.33.33v.33a.31.31,0,0,1-.33.33H63.85a.1.1,0,0,0-.11.11V6.82a.1.1,0,0,0,.11.11H66.9a.31.31,0,0,1,.33.33v.33a.31.31,0,0,1-.33.33Z"/><path id="_Compound_Path_12" data-name="&lt;Compound Path&gt;" class="cls-5" d="M74.06,7.93a.31.31,0,0,1-.33-.33V2.46a.13.13,0,0,0-.07-.13s-.08,0-.11.09L72.43,5.57a.4.4,0,0,1-.4.3h-.71a.4.4,0,0,1-.4-.3L69.8,2.41q0-.1-.11-.1s-.07,0-.07.14V7.59a.31.31,0,0,1-.33.33H68.9a.31.31,0,0,1-.33-.33V.71a.33.33,0,0,1,.09-.24A.33.33,0,0,1,68.9.38h1a.38.38,0,0,1,.24.07.44.44,0,0,1,.13.19l1.31,3.87c0,.07.06.11.11.11s.09,0,.12-.11L73.09.65a.43.43,0,0,1,.13-.19.38.38,0,0,1,.24-.07h1a.33.33,0,0,1,.24.09.33.33,0,0,1,.09.24V7.59a.31.31,0,0,1-.33.33Z"/><path id="_Compound_Path_13" data-name="&lt;Compound Path&gt;" class="cls-5" d="M76.48,6.52a.3.3,0,0,1,.24-.1.39.39,0,0,1,.23.1l.2.17a1.45,1.45,0,0,0,.26.17,1.51,1.51,0,0,0,.33.13,1.7,1.7,0,0,0,.43,0A1.3,1.3,0,0,0,79,6.74.93.93,0,0,0,79.38,6a1.07,1.07,0,0,0-.31-.8,3.74,3.74,0,0,0-1-.62,6.29,6.29,0,0,1-.76-.42,2.84,2.84,0,0,1-.58-.5A2,2,0,0,1,76.39,3a2.34,2.34,0,0,1-.13-.8,1.93,1.93,0,0,1,.14-.73,1.84,1.84,0,0,1,.42-.63A2.13,2.13,0,0,1,77.5.44a2.47,2.47,0,0,1,2,.08,3.1,3.1,0,0,1,.72.51.29.29,0,0,1,0,.47l-.26.27a.34.34,0,0,1-.21.12.34.34,0,0,1-.23-.12A2.74,2.74,0,0,0,79,1.45a1.26,1.26,0,0,0-.65-.18,1.18,1.18,0,0,0-.45.08,1.21,1.21,0,0,0-.36.22,1,1,0,0,0-.23.31.82.82,0,0,0-.08.36,1.2,1.2,0,0,0,.07.43,1.07,1.07,0,0,0,.22.35,1.79,1.79,0,0,0,.39.31,4.47,4.47,0,0,0,.58.29,6.35,6.35,0,0,1,.81.42,2.78,2.78,0,0,1,.6.49,1.89,1.89,0,0,1,.37.62,2.34,2.34,0,0,1,.13.8,1.85,1.85,0,0,1-.18.8,2.09,2.09,0,0,1-.49.66,2.47,2.47,0,0,1-.73.45,2.29,2.29,0,0,1-.88.17A2.54,2.54,0,0,1,77,7.81a2.73,2.73,0,0,1-.75-.58.34.34,0,0,1-.1-.22.3.3,0,0,1,.1-.24Z"/></g><g id="_Group_11" data-name="&lt;Group&gt;"><path id="_Compound_Path_14" data-name="&lt;Compound Path&gt;" class="cls-5" d="M92.88,7.93a.31.31,0,0,1-.33-.33V1.49a.1.1,0,0,0-.11-.11H90.77a.33.33,0,0,1-.24-.09A.33.33,0,0,1,90.44,1V.71a.33.33,0,0,1,.09-.24.33.33,0,0,1,.24-.09h4.6a.33.33,0,0,1,.24.09.33.33,0,0,1,.09.24V1a.33.33,0,0,1-.09.24.33.33,0,0,1-.24.09H93.71a.1.1,0,0,0-.11.11v6.1a.31.31,0,0,1-.33.33Z"/><path id="_Compound_Path_15" data-name="&lt;Compound Path&gt;" class="cls-5" d="M97,7.93a.31.31,0,0,1-.33-.33V.71a.33.33,0,0,1,.09-.24A.33.33,0,0,1,97,.38h3.66a.33.33,0,0,1,.24.09.33.33,0,0,1,.09.24V1a.33.33,0,0,1-.09.24.33.33,0,0,1-.24.09H97.87a.1.1,0,0,0-.11.11v2a.1.1,0,0,0,.11.11h2.61a.31.31,0,0,1,.33.33v.33a.31.31,0,0,1-.33.33H97.87a.1.1,0,0,0-.11.11V6.82a.1.1,0,0,0,.11.11h3.05a.31.31,0,0,1,.33.33v.33a.31.31,0,0,1-.33.33Z"/><path id="_Compound_Path_16" data-name="&lt;Compound Path&gt;" class="cls-5" d="M107.08,6.71a.3.3,0,0,1,.1.24.34.34,0,0,1-.1.22,3.5,3.5,0,0,1-.83.61,2.92,2.92,0,0,1-2.24.06,2.38,2.38,0,0,1-.8-.54,2.52,2.52,0,0,1-.53-.84,2.93,2.93,0,0,1-.19-1.08V2.93a2.9,2.9,0,0,1,.19-1.07A2.52,2.52,0,0,1,103.2,1a2.45,2.45,0,0,1,.8-.55,2.54,2.54,0,0,1,1-.2,2.85,2.85,0,0,1,.67.07,3,3,0,0,1,.54.18,2.25,2.25,0,0,1,.43.25A3,3,0,0,1,107,1a.29.29,0,0,1,0,.47l-.26.26a.34.34,0,0,1-.21.12.34.34,0,0,1-.23-.12,2.83,2.83,0,0,0-.44-.31,1.56,1.56,0,0,0-.8-.18,1.46,1.46,0,0,0-.63.13,1.37,1.37,0,0,0-.47.36,1.56,1.56,0,0,0-.29.53,2.07,2.07,0,0,0-.1.65V5.37a1.79,1.79,0,0,0,.39,1.2A1.36,1.36,0,0,0,105,7a1.72,1.72,0,0,0,.83-.18,2.88,2.88,0,0,0,.55-.37.39.39,0,0,1,.23-.1.3.3,0,0,1,.24.1Z"/><path id="_Compound_Path_17" data-name="&lt;Compound Path&gt;" class="cls-5" d="M112.57,7.93a.31.31,0,0,1-.33-.33V4.71a.1.1,0,0,0-.11-.11h-2.61a.1.1,0,0,0-.11.11V7.59a.31.31,0,0,1-.33.33h-.39a.31.31,0,0,1-.33-.33V.71a.33.33,0,0,1,.09-.24.33.33,0,0,1,.24-.09h.39a.33.33,0,0,1,.24.09.33.33,0,0,1,.09.24V3.49a.1.1,0,0,0,.11.11h2.61a.1.1,0,0,0,.11-.11V.71a.33.33,0,0,1,.09-.24.33.33,0,0,1,.24-.09H113a.33.33,0,0,1,.24.09.33.33,0,0,1,.09.24V7.59a.31.31,0,0,1-.33.33Z"/><path id="_Compound_Path_18" data-name="&lt;Compound Path&gt;" class="cls-5" d="M119.34,7.93a.36.36,0,0,1-.25-.08,1.06,1.06,0,0,1-.19-.25l-2.82-4.94q-.06-.09-.12-.07s-.06.05-.06.11V7.59a.31.31,0,0,1-.33.33h-.39a.31.31,0,0,1-.33-.33V.71a.33.33,0,0,1,.09-.24.33.33,0,0,1,.24-.09h.43a.57.57,0,0,1,.28.06.55.55,0,0,1,.2.22l2.7,4.69a.1.1,0,0,0,.11.06s.06,0,.06-.1V.71A.33.33,0,0,1,119,.47a.33.33,0,0,1,.24-.09h.39a.33.33,0,0,1,.24.09.33.33,0,0,1,.09.24V7.59a.31.31,0,0,1-.33.33Z"/><path id="_Compound_Path_19" data-name="&lt;Compound Path&gt;" class="cls-5" d="M126.66,5.48a2.7,2.7,0,0,1-.19,1,2.31,2.31,0,0,1-.54.8,2.53,2.53,0,0,1-.83.52,3,3,0,0,1-2.09,0,2.53,2.53,0,0,1-.83-.52,2.31,2.31,0,0,1-.54-.8,2.7,2.7,0,0,1-.19-1V2.82a2.7,2.7,0,0,1,.19-1,2.31,2.31,0,0,1,.54-.8A2.54,2.54,0,0,1,123,.46a3,3,0,0,1,2.09,0,2.54,2.54,0,0,1,.83.52,2.31,2.31,0,0,1,.54.8,2.7,2.7,0,0,1,.19,1Zm-1.05-2.66a1.6,1.6,0,0,0-.4-1.11,1.72,1.72,0,0,0-2.31,0,1.6,1.6,0,0,0-.4,1.11V5.48a1.6,1.6,0,0,0,.4,1.11,1.72,1.72,0,0,0,2.31,0,1.6,1.6,0,0,0,.4-1.11Z"/><path id="_Compound_Path_20" data-name="&lt;Compound Path&gt;" class="cls-5" d="M128.44,7.93a.31.31,0,0,1-.33-.33V.71a.33.33,0,0,1,.09-.24.33.33,0,0,1,.24-.09h.39a.33.33,0,0,1,.24.09.33.33,0,0,1,.09.24v6.1a.1.1,0,0,0,.11.11h3a.31.31,0,0,1,.33.33v.33a.31.31,0,0,1-.33.33Z"/><path id="_Compound_Path_21" data-name="&lt;Compound Path&gt;" class="cls-5" d="M138.35,5.48a2.7,2.7,0,0,1-.19,1,2.31,2.31,0,0,1-.54.8,2.53,2.53,0,0,1-.83.52,3,3,0,0,1-2.09,0,2.53,2.53,0,0,1-.83-.52,2.31,2.31,0,0,1-.54-.8,2.7,2.7,0,0,1-.19-1V2.82a2.7,2.7,0,0,1,.19-1,2.31,2.31,0,0,1,.54-.8,2.54,2.54,0,0,1,.83-.52,3,3,0,0,1,2.09,0,2.54,2.54,0,0,1,.83.52,2.31,2.31,0,0,1,.54.8,2.7,2.7,0,0,1,.19,1Zm-1.05-2.66a1.6,1.6,0,0,0-.4-1.11,1.72,1.72,0,0,0-2.31,0,1.6,1.6,0,0,0-.4,1.11V5.48a1.6,1.6,0,0,0,.4,1.11,1.72,1.72,0,0,0,2.31,0,1.6,1.6,0,0,0,.4-1.11Z"/><path id="_Compound_Path_22" data-name="&lt;Compound Path&gt;" class="cls-5" d="M144.73,5.54a2.68,2.68,0,0,1-.19,1,2.29,2.29,0,0,1-.53.79,2.33,2.33,0,0,1-.81.5,2.93,2.93,0,0,1-1,.18,2.52,2.52,0,0,1-1-.19,2.34,2.34,0,0,1-.79-.54,2.43,2.43,0,0,1-.52-.84,3.09,3.09,0,0,1-.18-1.08V2.93a2.9,2.9,0,0,1,.19-1.07,2.52,2.52,0,0,1,.53-.84,2.45,2.45,0,0,1,.8-.55,2.54,2.54,0,0,1,1-.2,2.85,2.85,0,0,1,.67.07,3,3,0,0,1,.54.18,2.25,2.25,0,0,1,.43.25,3,3,0,0,1,.31.26.29.29,0,0,1,0,.47l-.26.26a.34.34,0,0,1-.21.12.34.34,0,0,1-.23-.12,2.83,2.83,0,0,0-.44-.31,1.56,1.56,0,0,0-.8-.18,1.46,1.46,0,0,0-.63.13,1.37,1.37,0,0,0-.47.36,1.56,1.56,0,0,0-.29.53,2.07,2.07,0,0,0-.1.65V5.37a1.88,1.88,0,0,0,.37,1.2,1.28,1.28,0,0,0,1.07.46,1.45,1.45,0,0,0,1.13-.42,1.55,1.55,0,0,0,.38-1.08V5.45a.24.24,0,0,0,0-.12.16.16,0,0,0-.08-.06l-1.92-1.09a.36.36,0,0,1-.16-.2.31.31,0,0,1,0-.26l.17-.29a.32.32,0,0,1,.19-.17.29.29,0,0,1,.25,0l2.35,1.35a.51.51,0,0,1,.19.17.52.52,0,0,1,0,.24Z"/><path id="_Compound_Path_23" data-name="&lt;Compound Path&gt;" class="cls-5" d="M147.89,7.93a.31.31,0,0,1-.33-.33V4.93a.23.23,0,0,0-.16-.24,2.45,2.45,0,0,1-1.35-.9,2.66,2.66,0,0,1-.49-1.63V.71a.33.33,0,0,1,.09-.24.33.33,0,0,1,.24-.09h.39a.33.33,0,0,1,.24.09.33.33,0,0,1,.09.24V2.16a2.29,2.29,0,0,0,.08.63,1.39,1.39,0,0,0,.26.51,1.27,1.27,0,0,0,.45.34,1.72,1.72,0,0,0,1.3,0,1.27,1.27,0,0,0,.45-.34,1.39,1.39,0,0,0,.26-.51,2.29,2.29,0,0,0,.08-.63V.71a.33.33,0,0,1,.09-.24.33.33,0,0,1,.24-.09h.39a.33.33,0,0,1,.24.09.33.33,0,0,1,.09.24V2.16a2.74,2.74,0,0,1-.48,1.62,2.26,2.26,0,0,1-1.31.9.17.17,0,0,0-.12.09.38.38,0,0,0,0,.16V7.59a.31.31,0,0,1-.33.33Z"/></g><path id="_Compound_Path_24" data-name="&lt;Compound Path&gt;" class="cls-5" d="M84.79,8A2.29,2.29,0,0,1,84,7.8a2,2,0,0,1-.67-.43,2,2,0,0,1-.45-.65,2.08,2.08,0,0,1-.16-.83A2,2,0,0,1,83,4.8a2.06,2.06,0,0,1,.68-.69c.06,0,.09-.08.09-.12a.17.17,0,0,0-.06-.12,2.22,2.22,0,0,1-.39-.57,1.75,1.75,0,0,1-.16-.77,2.13,2.13,0,0,1,.17-.85A2.2,2.2,0,0,1,83.76,1a2.22,2.22,0,0,1,.69-.46A2.11,2.11,0,0,1,85.3.36h.84a.33.33,0,0,1,.25.09.33.33,0,0,1,.09.25v.39a.33.33,0,0,1-.09.25.33.33,0,0,1-.25.09h-.87a1,1,0,0,0-.77.32,1.16,1.16,0,0,0-.32.85,1,1,0,0,0,.32.82,1.1,1.1,0,0,0,.77.29h2.6A.31.31,0,0,1,88.2,4v.33a.31.31,0,0,1-.33.33H87.2a.1.1,0,0,0-.11.11v2.8a.31.31,0,0,1-.34.33ZM86,4.81a.1.1,0,0,0-.11-.11H84.76A1,1,0,0,0,84,5a1.15,1.15,0,0,0-.29.81,1,1,0,0,0,.29.78,1,1,0,0,0,.74.28h1.15A.1.1,0,0,0,86,6.78Z"/></g><path class="cls-3" d="M3,13.1h.58a.33.33,0,0,0,.36-.35v-.69a.33.33,0,0,0-.36-.35H3a.33.33,0,0,0-.35.35v.69A.33.33,0,0,0,3,13.1Z"/><path class="cls-3" d="M1.43,13.1H2a.33.33,0,0,0,.36-.35v-.69A.33.33,0,0,0,2,11.7H1.43a.33.33,0,0,0-.35.35v.69A.33.33,0,0,0,1.43,13.1ZM2,11.9c.11,0,.16.05.16.15v.69c0,.1-.05.15-.16.15q.16,0,.16-.15v-.69A.14.14,0,0,0,2,11.9Z"/><path class="cls-3" d="M9.3,12.06v.69a.33.33,0,0,0,.36.36h.58a.33.33,0,0,0,.36-.36v-.69a.33.33,0,0,0-.36-.36H9.66A.33.33,0,0,0,9.3,12.06Zm.36.85a.14.14,0,0,1-.16-.16v-.69a.14.14,0,0,1,.16-.16.14.14,0,0,0-.16.16v.69A.14.14,0,0,0,9.66,12.91Z"/><path class="cls-3" d="M8.1,13.1h.58A.33.33,0,0,0,9,12.75v-.69a.33.33,0,0,0-.35-.35H8.1a.33.33,0,0,0-.35.35v.69A.33.33,0,0,0,8.1,13.1Zm-.15-1a.14.14,0,0,1,.15-.15.14.14,0,0,0-.15.15v.69a.14.14,0,0,0,.15.15.14.14,0,0,1-.15-.15Z"/><path class="cls-3" d="M8.88,11.63h.58a.33.33,0,0,0,.36-.35V10.6a.33.33,0,0,0-.36-.35H8.88a.33.33,0,0,0-.35.35v.69A.33.33,0,0,0,8.88,11.63Zm-.15-1a.14.14,0,0,1,.15-.15.14.14,0,0,0-.15.15v.69a.14.14,0,0,0,.15.15.14.14,0,0,1-.15-.15Z"/><path class="cls-3" d="M13.79,14.09h-.54a.33.33,0,0,0-.36.35v3.95a.48.48,0,0,1-.1.34.47.47,0,0,1-.33.1H10.39c-.38,0-.51-.08-.56-.13a.24.24,0,0,1,0-.16V14.45a.33.33,0,0,0-.36-.36H8.89a.33.33,0,0,0-.35.36v3.93a.52.52,0,0,1-.1.35.43.43,0,0,1-.32.1H5.33v-2.3a2.59,2.59,0,0,0-.78-1.89,2.59,2.59,0,0,0-1.89-.78,2.57,2.57,0,0,0-1.88.78A2.58,2.58,0,0,0,0,16.53v.87a2.59,2.59,0,0,0,.78,1.89,2.57,2.57,0,0,0,1.88.78H8.1a1.7,1.7,0,0,0,1.13-.37,2.07,2.07,0,0,0,1.3.37h1.92a1.68,1.68,0,0,0,1.22-.46,1.66,1.66,0,0,0,.47-1.23V14.44A.33.33,0,0,0,13.79,14.09ZM.38,15.58a2.47,2.47,0,0,1,.54-.8,2.36,2.36,0,0,1,1.25-.68,2.36,2.36,0,0,0-1.25.68A2.47,2.47,0,0,0,.38,15.58Zm.54,3.57a2.36,2.36,0,0,0,1.25.68A2.36,2.36,0,0,1,.92,19.16Zm3.17-.33H2.67a1.34,1.34,0,0,1-1-.42,1.36,1.36,0,0,1-.42-1v-.87a1.36,1.36,0,0,1,.42-1,1.35,1.35,0,0,1,1-.41,1.37,1.37,0,0,1,1,.41,1.36,1.36,0,0,1,.42,1Zm9-4.38v3.95a.77.77,0,0,1-.08.35.77.77,0,0,0,.08-.35V14.44c0-.1.05-.15.16-.15Q13.09,14.29,13.09,14.44Z"/><path class="cls-3" d="M12,20.8h-.58a.33.33,0,0,0-.35.36v.69a.33.33,0,0,0,.35.35H12a.33.33,0,0,0,.36-.35v-.69A.33.33,0,0,0,12,20.8Z"/><path class="cls-3" d="M13.57,20.8H13a.33.33,0,0,0-.35.36v.69a.33.33,0,0,0,.35.35h.58a.33.33,0,0,0,.36-.35v-.69A.33.33,0,0,0,13.57,20.8ZM13,22a.16.16,0,0,1-.12,0A.16.16,0,0,0,13,22Zm-.12-1A.15.15,0,0,1,13,21h0A.15.15,0,0,0,12.88,21Z"/><path class="cls-3" d="M31.9,11.23h-.55a.33.33,0,0,0-.35.36V18.4a.49.49,0,0,1-.1.34.43.43,0,0,1-.29.09H28.94c-.37,0-.51-.08-.55-.13a.23.23,0,0,1,0-.16V16.77a2.91,2.91,0,0,0-2.9-2.9,3.18,3.18,0,0,0-2.74,1.32l-.16.22a.38.38,0,0,0-.06.2s0,.05,0,.06a.36.36,0,0,0,.14.22l.45.32a.34.34,0,0,0,.21.08.34.34,0,0,0,.28-.16l.16-.22a1.94,1.94,0,0,1,1.72-.79,1.65,1.65,0,0,1,1.65,1.65v1.13a.79.79,0,0,1-.94.94H21a.66.66,0,0,1-.49-.16.38.38,0,0,1-.11-.28V16.17A2.3,2.3,0,0,0,18,13.87a3,3,0,0,0-1.73.46l-.22.15a.35.35,0,0,0-.15.23s0,.05,0,.06A.31.31,0,0,0,16,15l.29.42a.33.33,0,0,0,.25.15h0a.36.36,0,0,0,.2-.06l.23-.16a1.76,1.76,0,0,1,1-.23,1,1,0,0,1,.75.31,1,1,0,0,1,.31.75V18a.82.82,0,0,1-.16.58,1.13,1.13,0,0,1-.78.2H15.65a.33.33,0,0,0-.35.36v.54a.33.33,0,0,0,.35.35h2.52a2.35,2.35,0,0,0,1.59-.5,1.89,1.89,0,0,0,1.35.5h5.05a2.21,2.21,0,0,0,1.5-.49,2,2,0,0,0,1.43.49h1.48a1.69,1.69,0,0,0,1.22-.46,1.67,1.67,0,0,0,.47-1.23v-6.8A.33.33,0,0,0,31.9,11.23Zm-8,4.18a2.29,2.29,0,0,1,1.53-.49A2.29,2.29,0,0,0,23.92,15.41Zm-7.3,0h0l.09,0ZM18.32,19a1.27,1.27,0,0,0,.69-.19A1.27,1.27,0,0,1,18.32,19Zm.14-4.92a2,2,0,0,1,.75.31A2,2,0,0,0,18.47,14.1ZM19,15.38a1.2,1.2,0,0,1,.29.79A1.2,1.2,0,0,0,19,15.38Zm.75,3.91a1.49,1.49,0,0,1-.29.26,1.49,1.49,0,0,0,.29-.26Zm7.9,0a1.64,1.64,0,0,1-.29.26,1.64,1.64,0,0,0,.29-.26Zm0-4a2.51,2.51,0,0,1,.4,1A2.51,2.51,0,0,0,27.7,15.27Zm1.38,4.61-.4,0,.4,0Z"/><path class="cls-3" d="M34.65,11.23h-.55a.33.33,0,0,0-.35.35v8.15a.33.33,0,0,0,.35.35h.55a.33.33,0,0,0,.34-.35V11.58A.33.33,0,0,0,34.65,11.23Zm-.55,8.65a.14.14,0,0,1-.15-.15V11.58a.14.14,0,0,1,.15-.15.14.14,0,0,0-.15.15v8.15A.14.14,0,0,0,34.09,19.88Z"/><path class="cls-3" d="M44.68,20.8h-.57a.33.33,0,0,0-.36.36v.69a.33.33,0,0,0,.36.35h.57a.33.33,0,0,0,.36-.35v-.69A.33.33,0,0,0,44.68,20.8Zm.16,1q0,.15-.16.15.16,0,.16-.15v-.69a.14.14,0,0,0-.16-.16.14.14,0,0,1,.16.16Z"/><path class="cls-3" d="M43.12,20.8h-.58a.33.33,0,0,0-.35.36v.69a.33.33,0,0,0,.35.35h.58a.33.33,0,0,0,.36-.35v-.69A.33.33,0,0,0,43.12,20.8Z"/><path class="cls-3" d="M49.86,13.86a3.77,3.77,0,0,0-1.21.2,3,3,0,0,0-1.53,1.13L47,15.4a.41.41,0,0,0-.07.22.33.33,0,0,0,.17.28l.44.3a.34.34,0,0,0,.21.07.32.32,0,0,0,.28-.18l.15-.21a1.92,1.92,0,0,1,1.71-.79A1.58,1.58,0,0,1,51,15.6a1.56,1.56,0,0,1,.49,1.17v1.12a1,1,0,0,1-.21.73,1,1,0,0,1-.72.22h-5.2c-.38,0-.51-.08-.56-.13a.24.24,0,0,1,0-.16V14.45a.33.33,0,0,0-.36-.36h-.54a.33.33,0,0,0-.35.36v3.93a.51.51,0,0,1-.09.35.43.43,0,0,1-.32.1H41.06a.46.46,0,0,1-.33-.1.53.53,0,0,1-.09-.34v-6.8a.33.33,0,0,0-.36-.36h-.54a.33.33,0,0,0-.35.36v6.8a1.58,1.58,0,0,0,1.68,1.69h2a1.7,1.7,0,0,0,1.13-.37,2.06,2.06,0,0,0,1.3.37h5.06a2,2,0,0,0,2.19-2.19V16.77a2.91,2.91,0,0,0-2.91-2.91Zm-2.73,1.66a.2.2,0,0,0,0,.1.2.2,0,0,1,0-.1l.16-.22Zm-2.91,3.91h0l0,0ZM50.59,19a1.18,1.18,0,0,0,.86-.27A1.18,1.18,0,0,1,50.59,19Z"/><path class="cls-3" d="M49.51,20.72h-.57a.33.33,0,0,0-.36.36v.69a.33.33,0,0,0,.36.35h.57a.33.33,0,0,0,.35-.35v-.69A.33.33,0,0,0,49.51,20.72Zm-.57,1.2c-.11,0-.16-.05-.16-.15v-.69a.14.14,0,0,1,.16-.16.14.14,0,0,0-.16.16v.69A.14.14,0,0,0,48.94,21.92Z"/><path class="cls-3" d="M63.3,11.23h-.55a.33.33,0,0,0-.35.36V18.4a.49.49,0,0,1-.1.34.44.44,0,0,1-.29.09H59.43v-2.3a2.67,2.67,0,0,0-5.34,0v.88a2.67,2.67,0,0,0,2.67,2.67h1.42a1.2,1.2,0,0,1-.37.82,1.19,1.19,0,0,1-.88.37H55.71a.33.33,0,0,0-.34.35v.55a.33.33,0,0,0,.34.35h1.22a2.54,2.54,0,0,0,2.5-2.44H62a1.58,1.58,0,0,0,1.69-1.69v-6.8A.33.33,0,0,0,63.3,11.23ZM55.71,22.32q-.15,0-.15-.15v-.55q0-.15.15-.15-.15,0-.15.15v.55Q55.57,22.32,55.71,22.32Zm1.05-3.5a1.42,1.42,0,0,1-1.42-1.42v-.88a1.34,1.34,0,0,1,.42-1,1.41,1.41,0,0,1,2,0,1.34,1.34,0,0,1,.42,1v2.3ZM58.38,20A1.4,1.4,0,0,1,58,21a1.4,1.4,0,0,0,.43-1v-.14h0Zm0-1h0V16.53a1.54,1.54,0,0,0-.47-1.14,1.54,1.54,0,0,1,.47,1.14Zm4.22-7.44a.14.14,0,0,1,.15-.16A.14.14,0,0,0,62.6,11.58Z"/><path class="cls-3" d="M74,13.1h.58a.33.33,0,0,0,.36-.35v-.69a.33.33,0,0,0-.36-.35H74a.33.33,0,0,0-.35.35v.69A.33.33,0,0,0,74,13.1Z"/><path class="cls-3" d="M86.08,13.1h.58a.33.33,0,0,0,.35-.35v-.69a.33.33,0,0,0-.35-.35h-.58a.33.33,0,0,0-.36.35v.69A.33.33,0,0,0,86.08,13.1Zm-.16-1c0-.1.05-.15.16-.15a.14.14,0,0,0-.16.15v.69q0,.15.16.15c-.11,0-.16-.05-.16-.15Z"/><path class="cls-3" d="M87.65,13.1h.57a.33.33,0,0,0,.36-.35v-.69a.33.33,0,0,0-.36-.35h-.57a.33.33,0,0,0-.35.35v.69A.33.33,0,0,0,87.65,13.1Z"/><path class="cls-3" d="M91.33,11.23h-.55a.33.33,0,0,0-.35.36V18.4a.49.49,0,0,1-.1.34.44.44,0,0,1-.29.09H88.38c-.38,0-.51-.08-.55-.12a.23.23,0,0,1,0-.16V14.45a.33.33,0,0,0-.35-.36h-.55a.33.33,0,0,0-.34.36v3.93a.47.47,0,0,1-.1.35.43.43,0,0,1-.32.1H83.83c-.39,0-.51-.08-.55-.12a.22.22,0,0,1,0-.16V17.29a2.79,2.79,0,0,0-.79-2,2.7,2.7,0,0,0-2-.81h-2a1.62,1.62,0,0,1,1.8-1.51h1a.33.33,0,0,0,.35-.35V12a.33.33,0,0,0-.35-.34h-1a2.93,2.93,0,0,0-2.28.91,3.53,3.53,0,0,0-.82,2.47.61.61,0,0,0,.19.45.62.62,0,0,0,.44.18h2.62a1.49,1.49,0,0,1,1.12.43A1.59,1.59,0,0,1,82,17.29v1.1a.52.52,0,0,1-.1.35.51.51,0,0,1-.35.1h-6c-.38,0-.51-.08-.56-.13a.24.24,0,0,1,0-.16V14.45a.33.33,0,0,0-.36-.36H74a.33.33,0,0,0-.35.36v3.93a.51.51,0,0,1-.09.35.43.43,0,0,1-.32.1h-3v-2.3a2.67,2.67,0,0,0-5.34,0v.88a2.67,2.67,0,0,0,2.67,2.67h1.42a1.2,1.2,0,0,1-.37.82,1.19,1.19,0,0,1-.88.37H66.6a.33.33,0,0,0-.34.35v.55a.33.33,0,0,0,.34.35h1.22a2.54,2.54,0,0,0,2.5-2.44h2.93a1.7,1.7,0,0,0,1.13-.37,2.06,2.06,0,0,0,1.3.37h5.86a1.67,1.67,0,0,0,1.13-.37,2.05,2.05,0,0,0,1.3.37H86.1a1.69,1.69,0,0,0,1.13-.37,2.07,2.07,0,0,0,1.3.37H90a1.58,1.58,0,0,0,1.69-1.69v-6.8A.33.33,0,0,0,91.33,11.23ZM81.24,12.73a.14.14,0,0,0,.15-.15.14.14,0,0,1-.15.15h-1a2.23,2.23,0,0,0-1.14.27,2.23,2.23,0,0,1,1.14-.27ZM79.19,12a2.44,2.44,0,0,0-1.05.68A2.44,2.44,0,0,1,79.19,12ZM65.58,18.78a2.38,2.38,0,0,1-.41-1.37v-.88a2.36,2.36,0,0,1,.41-1.36,2.36,2.36,0,0,0-.41,1.36v.88A2.38,2.38,0,0,0,65.58,18.78ZM69,14.47a2.33,2.33,0,0,0-1.12-.39A2.33,2.33,0,0,1,69,14.47Zm.05,4.36H67.65a1.42,1.42,0,0,1-1.42-1.42v-.88a1.34,1.34,0,0,1,.42-1,1.41,1.41,0,0,1,2,0,1.34,1.34,0,0,1,.42,1Zm5.33.62a1.64,1.64,0,0,0,1.09.42A1.64,1.64,0,0,1,74.39,19.45Zm.62-.52a1.31,1.31,0,0,0,.52.09A1.31,1.31,0,0,1,75,18.93Zm6.52.09a.69.69,0,0,0,.49-.15A.69.69,0,0,1,81.53,19Zm4.58,0h0a.61.61,0,0,0,.46-.15A.61.61,0,0,1,86.11,19Zm1.12.43a1.64,1.64,0,0,0,1.09.42A1.64,1.64,0,0,1,87.23,19.45Z"/><path class="cls-3" d="M94.08,11.23h-.55a.33.33,0,0,0-.35.35v8.15a.33.33,0,0,0,.35.35h.55a.33.33,0,0,0,.34-.35V11.58A.33.33,0,0,0,94.08,11.23Z"/><path class="cls-3" d="M111.66,13.1h.58a.33.33,0,0,0,.36-.35v-.69a.33.33,0,0,0-.36-.35h-.58a.33.33,0,0,0-.35.35v.69A.33.33,0,0,0,111.66,13.1Z"/><path class="cls-3" d="M118.94,14.09h-.54a.33.33,0,0,0-.36.35v3.95a.48.48,0,0,1-.1.34.46.46,0,0,1-.32.1h-2a.65.65,0,0,1-.48-.16.37.37,0,0,1-.1-.28V16.77a3.06,3.06,0,0,0-.7-2.1,2.43,2.43,0,0,0-1.9-.8,4.55,4.55,0,0,0-2.81,1.38V11.58a.33.33,0,0,0-.35-.35h-.54a.33.33,0,0,0-.36.35v7.25h-2.22a.67.67,0,0,1-.48-.17.28.28,0,0,1-.06-.09,2.65,2.65,0,0,0,.27-1.17v-.88a2.67,2.67,0,0,0-5.33,0v2.3h-.22a1.86,1.86,0,0,0-1.85,1.85v1.57a.33.33,0,0,0,.35.35h.55a.33.33,0,0,0,.35-.35V20.67a.59.59,0,0,1,.59-.59h2.89a2.58,2.58,0,0,0,1.67-.59l.06.07a1.88,1.88,0,0,0,1.37.53h6.53a2.19,2.19,0,0,0,1.55-.54h0a1.88,1.88,0,0,0,1.38.53h1.86a1.69,1.69,0,0,0,1.22-.46,1.67,1.67,0,0,0,.47-1.23V14.44A.33.33,0,0,0,118.94,14.09ZM99.11,19.5a1.59,1.59,0,0,0-.49,1.17v1.57a.14.14,0,0,0,.15.15.14.14,0,0,1-.15-.15V20.67A1.66,1.66,0,0,1,100.28,19h0A1.59,1.59,0,0,0,99.11,19.5Zm4.05-5.45a2.36,2.36,0,0,1,1.36.41,2.36,2.36,0,0,0-1.36-.41,2.44,2.44,0,0,0-.95.18A2.44,2.44,0,0,1,103.17,14.06Zm1.42,3.35a1.41,1.41,0,0,1-1.42,1.42h-1.42v-2.3a1.42,1.42,0,0,1,2.84,0Zm5,1.42V16.92a6.64,6.64,0,0,1,1.36-1.21,2.74,2.74,0,0,1,1.46-.59,1.15,1.15,0,0,1,1.13.65,2.19,2.19,0,0,1,.21,1v1.13a.79.79,0,0,1-.94.94Zm4.08-.08a.83.83,0,0,1-.35.21.68.68,0,0,0,.49-.44A.83.83,0,0,1,113.66,18.75Z"/><path class="cls-3" d="M119,11.7h-.58a.33.33,0,0,0-.35.35v.69a.33.33,0,0,0,.35.35H119a.33.33,0,0,0,.35-.35v-.69A.33.33,0,0,0,119,11.7Zm-.58,1.2a.14.14,0,0,1-.15-.15v-.69a.14.14,0,0,1,.15-.15.14.14,0,0,0-.15.15v.69A.14.14,0,0,0,118.38,12.9Z"/><path class="cls-3" d="M126.3,13.1h.58a.33.33,0,0,0,.36-.35v-.69a.33.33,0,0,0-.36-.35h-.58a.33.33,0,0,0-.35.35v.69A.33.33,0,0,0,126.3,13.1Z"/><path class="cls-3" d="M124.73,13.1h.58a.33.33,0,0,0,.36-.35v-.69a.33.33,0,0,0-.36-.35h-.58a.33.33,0,0,0-.35.35v.69A.33.33,0,0,0,124.73,13.1Z"/><path class="cls-3" d="M134.35,14.44h-2a1.62,1.62,0,0,1,1.8-1.51h1a.33.33,0,0,0,.35-.35V12a.33.33,0,0,0-.35-.35h-1a2.94,2.94,0,0,0-2.28.91,3.58,3.58,0,0,0-.82,2.48.63.63,0,0,0,.62.62h2.64a1.48,1.48,0,0,1,1.12.43,1.57,1.57,0,0,1,.42,1.16v1.11a.46.46,0,0,1-.1.34.5.5,0,0,1-.34.1h-6.81v-2.3A2.67,2.67,0,0,0,126,13.86a2.68,2.68,0,0,0-2.67,2.67v.87A2.68,2.68,0,0,0,126,20.08h9.49a1.58,1.58,0,0,0,1.69-1.69V17.28a2.81,2.81,0,0,0-.79-2A2.71,2.71,0,0,0,134.35,14.44Zm-2.94.93a.42.42,0,0,1-.06-.09.37.37,0,0,0,.2.19A.43.43,0,0,1,131.41,15.37Zm-6.58,3.18h0l0,0Zm2.56.28H126a1.34,1.34,0,0,1-1-.42,1.36,1.36,0,0,1-.42-1v-.87a1.42,1.42,0,1,1,2.84,0Z"/><path class="cls-3" d="M147.18,12.05v.69a.33.33,0,0,0,.35.35h.58a.33.33,0,0,0,.36-.35v-.69a.33.33,0,0,0-.36-.35h-.58A.33.33,0,0,0,147.18,12.05Z"/><rect class="cls-3" x="146.41" y="10.25" width="1.28" height="1.39" rx="0.35" ry="0.35"/><rect class="cls-3" x="145.62" y="11.7" width="1.28" height="1.39" rx="0.35" ry="0.35"/><path class="cls-3" d="M150.34,14.09h-.55a.33.33,0,0,0-.35.35v4a.36.36,0,0,1-.44.44h-.74c-.38,0-.51-.08-.55-.13a.26.26,0,0,1,0-.16V14.75a.33.33,0,0,0-.35-.35h-.55a.33.33,0,0,0-.35.35v3.64a.46.46,0,0,1-.1.34.45.45,0,0,1-.32.1h-.75c-.4,0-.52-.09-.55-.12a.23.23,0,0,1,0-.16V14.44a.33.33,0,0,0-.36-.35h-.54a.33.33,0,0,0-.35.35v4a.49.49,0,0,1-.1.34.47.47,0,0,1-.29.09h-2.55V14.46a.33.33,0,0,0-.35-.36h-.55a.33.33,0,0,0-.36.36v5.87a1,1,0,0,1-.22.72,1,1,0,0,1-.72.22h-.59a.33.33,0,0,0-.35.35v.55a.33.33,0,0,0,.35.35h.59a2,2,0,0,0,2.19-2.19v-.25H143a1.7,1.7,0,0,0,1.14-.38,2.06,2.06,0,0,0,1.3.38H146a1.75,1.75,0,0,0,1.14-.38,2.08,2.08,0,0,0,1.3.38H149a1.71,1.71,0,0,0,1.23-.45,1.67,1.67,0,0,0,.47-1.23v-4A.33.33,0,0,0,150.34,14.09Zm-12.66,8.24a.14.14,0,0,1-.15-.15v-.55a.14.14,0,0,1,.15-.15.14.14,0,0,0-.15.15v.55A.14.14,0,0,0,137.67,22.32Zm.59-.86a1.16,1.16,0,0,0,.86-.27A1.16,1.16,0,0,1,138.26,21.47Zm1.17-7.13a.16.16,0,0,1,.12,0h0A.16.16,0,0,0,139.44,14.34Zm4,4.54a.5.5,0,0,1-.13.07.5.5,0,0,0,.13-.07.67.67,0,0,0,.15-.48A.67.67,0,0,1,143.44,18.88Z"/><g id="_Group_12" data-name="&lt;Group&gt;"><path id="_Path_7" data-name="&lt;Path&gt;" class="cls-2" d="M6,27.36H5.61c-.07,0-.11,0-.11.12v3a.49.49,0,0,1-.12.36.5.5,0,0,1-.36.12H1.92A1.21,1.21,0,0,1,1,30.57a1.22,1.22,0,0,1-.38-.9,1.32,1.32,0,0,1,.72-1.17l.18-.1a.1.1,0,0,0,.06-.06.09.09,0,0,0,0,0,.09.09,0,0,0,0-.05l-.19-.37a.12.12,0,0,0-.07-.06H1.25l-.19.09a2,2,0,0,0-.78.73,2,2,0,0,0-.29,1A1.84,1.84,0,0,0,.56,31a1.85,1.85,0,0,0,1.35.56H5a1.05,1.05,0,0,0,1.13-1.13v-3A.1.1,0,0,0,6,27.36Z"/><path id="_Path_8" data-name="&lt;Path&gt;" class="cls-2" d="M2.69,27.08h.44c.08,0,.12,0,.12-.12v-.47c0-.08,0-.12-.12-.12H2.69a.11.11,0,0,0-.12.12V27A.11.11,0,0,0,2.69,27.08Z"/><path id="_Path_9" data-name="&lt;Path&gt;" class="cls-2" d="M3.87,27.08H4.3A.11.11,0,0,0,4.42,27v-.47a.11.11,0,0,0-.12-.12H3.87c-.08,0-.12,0-.12.12V27C3.75,27,3.79,27.08,3.87,27.08Z"/><path id="_Compound_Path_25" data-name="&lt;Compound Path&gt;" class="cls-2" d="M12.22,27.19a1.87,1.87,0,0,0-1.87,1.87v1.89H8.68a.49.49,0,0,1-.35-.12.51.51,0,0,1-.11-.36V25.32a.11.11,0,0,0-.12-.12H7.69c-.08,0-.12,0-.12.12v5.15A1.05,1.05,0,0,0,8.7,31.6h3.52a1.88,1.88,0,0,0,1.87-1.87v-.67a1.88,1.88,0,0,0-1.87-1.87Zm1.22,2.53a1.23,1.23,0,0,1-1.22,1.22H11V29.06a1.23,1.23,0,0,1,1.22-1.22,1.18,1.18,0,0,1,.87.36,1.17,1.17,0,0,1,.36.86Z"/><path id="_Compound_Path_26" data-name="&lt;Compound Path&gt;" class="cls-2" d="M37.08,25.2h-.42c-.08,0-.12,0-.12.12v5.15a.51.51,0,0,1-.12.36.48.48,0,0,1-.35.12H34.6a.64.64,0,0,1-.47-.16.41.41,0,0,1-.1-.19,1.85,1.85,0,0,0,.22-.87v-.66a1.87,1.87,0,1,0-3.74,0v1.89H27.39l.87-1.85a.28.28,0,0,0,0-.13v0a1.79,1.79,0,0,0-.65-1.22,2,2,0,0,0-1.34-.52,2.1,2.1,0,0,0-2,1.73.21.21,0,0,0,0,0,.34.34,0,0,0,0,.14l.87,1.85H23a.74.74,0,0,1-.52-.14.3.3,0,0,1-.07-.22V25.32q0-.12-.12-.12h-.41c-.08,0-.12,0-.12.12v5.14a.51.51,0,0,1-.11.37.48.48,0,0,1-.35.12H19.13V29.06a1.87,1.87,0,0,0-3.74,0v.67a1.87,1.87,0,0,0,1.87,1.87h1.22v.1a1.11,1.11,0,0,1-1.09,1.09h-.92c-.07,0-.11,0-.11.12v.42c0,.08,0,.12.11.12h.92a1.77,1.77,0,0,0,1.74-1.74v-.1h2.11a1.1,1.1,0,0,0,.82-.3l0,0,0,0a1.31,1.31,0,0,0,1,.32h9.3a1.82,1.82,0,0,0,1.28-.51,1.1,1.1,0,0,0,.13.16,1.27,1.27,0,0,0,.93.35h1.35a1.13,1.13,0,0,0,.82-.3,1.12,1.12,0,0,0,.31-.83V25.32C37.2,25.24,37.16,25.2,37.08,25.2Zm-18.6,5.75H17.26A1.23,1.23,0,0,1,16,29.73v-.67a1.17,1.17,0,0,1,.36-.86,1.22,1.22,0,0,1,1.73,0,1.17,1.17,0,0,1,.36.86Zm7.44,0-.95-2a1.38,1.38,0,0,1,.46-.74,1.3,1.3,0,0,1,.87-.34,1.34,1.34,0,0,1,.87.32,1.17,1.17,0,0,1,.46.75l-1,2Zm7.67-1.22a1.23,1.23,0,0,1-1.22,1.22H31.16V29.06a1.22,1.22,0,1,1,2.44,0Z"/><path id="_Path_10" data-name="&lt;Path&gt;" class="cls-2" d="M39.16,25.2h-.42a.1.1,0,0,0-.12.12v6.16a.1.1,0,0,0,.12.12h.42c.07,0,.11,0,.11-.12V25.31C39.28,25.24,39.24,25.2,39.16,25.2Z"/><path id="_Path_11" data-name="&lt;Path&gt;" class="cls-2" d="M43.53,26.31H44q.12,0,.12-.12v-.52q0-.12-.12-.12h-.44a.1.1,0,0,0-.12.12v.52A.1.1,0,0,0,43.53,26.31Z"/><path id="_Path_12" data-name="&lt;Path&gt;" class="cls-2" d="M44.71,26.31h.44c.08,0,.12,0,.12-.12v-.52c0-.08,0-.12-.12-.12h-.44a.1.1,0,0,0-.12.12v.52A.1.1,0,0,0,44.71,26.31Z"/><path id="_Path_13" data-name="&lt;Path&gt;" class="cls-2" d="M49.83,32.44h-.43a.11.11,0,0,0-.12.12v.52c0,.08,0,.12.12.12h.43c.08,0,.12,0,.12-.12v-.52A.11.11,0,0,0,49.83,32.44Z"/><path id="_Path_14" data-name="&lt;Path&gt;" class="cls-2" d="M48.65,32.44h-.44c-.08,0-.12,0-.12.12v.52a.1.1,0,0,0,.12.12h.44c.08,0,.12,0,.12-.12v-.52A.11.11,0,0,0,48.65,32.44Z"/><path id="_Path_15" data-name="&lt;Path&gt;" class="cls-2" d="M52.46,26.31h.44c.08,0,.12,0,.12-.12v-.52c0-.08,0-.12-.12-.12h-.44a.1.1,0,0,0-.12.12v.52A.1.1,0,0,0,52.46,26.31Z"/><path id="_Path_16" data-name="&lt;Path&gt;" class="cls-2" d="M56.3,26.31h.44q.12,0,.12-.12v-.52q0-.12-.12-.12H56.3a.1.1,0,0,0-.12.12v.52A.1.1,0,0,0,56.3,26.31Z"/><path id="_Path_17" data-name="&lt;Path&gt;" class="cls-2" d="M57.48,26.31h.43q.12,0,.12-.12v-.52q0-.12-.12-.12h-.43c-.08,0-.12,0-.12.12v.52C57.36,26.27,57.4,26.31,57.48,26.31Z"/><path id="_Path_18" data-name="&lt;Path&gt;" class="cls-2" d="M63.18,25.56h-.43c-.08,0-.12,0-.12.12v.52c0,.08,0,.12.12.12h.43q.12,0,.12-.12v-.52Q63.3,25.56,63.18,25.56Z"/><path id="_Compound_Path_27" data-name="&lt;Compound Path&gt;" class="cls-2" d="M62.58,27.36h-.42c-.07,0-.11,0-.11.12v3a.42.42,0,0,1-.47.48H59V29.06a1.87,1.87,0,0,0-3.75,0v.67a1.81,1.81,0,0,0,.46,1.22H53.61a.75.75,0,0,1-.53-.14.31.31,0,0,1-.07-.22v-3.1a.11.11,0,0,0-.12-.12h-.41c-.08,0-.12,0-.12.12v3a.49.49,0,0,1-.12.37.46.46,0,0,1-.35.12H50.35a.75.75,0,0,1-.53-.14.31.31,0,0,1-.07-.22v-3.1a.11.11,0,0,0-.12-.12h-.41c-.08,0-.12,0-.12.12v3a.49.49,0,0,1-.12.37.46.46,0,0,1-.35.12H46.34V29.06a1.87,1.87,0,0,0-1.87-1.87,1.88,1.88,0,0,0-1.87,1.87v.66a1.88,1.88,0,0,0,1.87,1.87h4.16a1.11,1.11,0,0,0,.82-.3v0l0,0v0a1.32,1.32,0,0,0,1,.32h1.41a1.11,1.11,0,0,0,.82-.3v0l0,0v0a1.32,1.32,0,0,0,1,.32h7.86a1.14,1.14,0,0,0,.82-.3,1.12,1.12,0,0,0,.3-.83v-3C62.7,27.4,62.66,27.36,62.58,27.36ZM45.69,30.95H44.47a1.17,1.17,0,0,1-.86-.36,1.18,1.18,0,0,1-.36-.87v-.66a1.22,1.22,0,1,1,2.44,0Zm12.67,0H57.14a1.23,1.23,0,0,1-1.22-1.22v-.67a1.22,1.22,0,0,1,2.44,0Z"/><path id="_Path_19" data-name="&lt;Path&gt;" class="cls-2" d="M61.57,26.31H62q.12,0,.12-.12v-.52q0-.12-.12-.12h-.43c-.08,0-.12,0-.12.12v.52C61.45,26.27,61.49,26.31,61.57,26.31Z"/><path id="_Compound_Path_28" data-name="&lt;Compound Path&gt;" class="cls-2" d="M65.86,27.19A1.88,1.88,0,0,0,64,29.06v.67a1.87,1.87,0,0,0,1.87,1.87h1.22v.1A1.11,1.11,0,0,1,66,32.79h-.92a.1.1,0,0,0-.12.12v.42a.1.1,0,0,0,.12.12H66a1.77,1.77,0,0,0,1.74-1.74V29.06a1.87,1.87,0,0,0-1.87-1.87Zm1.22,3.75H65.86a1.22,1.22,0,0,1-1.22-1.22v-.67a1.22,1.22,0,0,1,2.44,0Z"/><path id="_Path_20" data-name="&lt;Path&gt;" class="cls-2" d="M74.89,33.48h-.44c-.08,0-.12,0-.12.12v.52a.1.1,0,0,0,.12.12h.44a.1.1,0,0,0,.12-.12V33.6C75,33.52,75,33.48,74.89,33.48Z"/><path id="_Path_21" data-name="&lt;Path&gt;" class="cls-2" d="M73.71,33.48h-.44a.11.11,0,0,0-.12.12v.52q0,.12.12.12h.44a.1.1,0,0,0,.12-.12V33.6C73.83,33.52,73.79,33.48,73.71,33.48Z"/><path id="_Path_22" data-name="&lt;Path&gt;" class="cls-2" d="M81.54,25.2h-.42c-.08,0-.12,0-.12.12v5.15a.51.51,0,0,1-.12.36.48.48,0,0,1-.35.12H78.69V28.67a1.47,1.47,0,0,0-2.95,0V32H73a1.27,1.27,0,0,1-1.27-1.27A1.3,1.3,0,0,1,71.9,30a1.27,1.27,0,0,1,.52-.48l.19-.1a.11.11,0,0,0,.07-.1.14.14,0,0,0,0-.06l-.19-.37a.1.1,0,0,0-.07-.06h-.09l-.19.1a2,2,0,0,0-1.07,1.75A1.91,1.91,0,0,0,73,32.63h3.11a.32.32,0,0,0,.32-.32V28.67a.82.82,0,1,1,1.65,0v2.6a.33.33,0,0,0,.1.23.32.32,0,0,0,.23.1h2.16a1.05,1.05,0,0,0,1.13-1.13V25.32C81.65,25.24,81.61,25.2,81.54,25.2Z"/><path id="_Path_23" data-name="&lt;Path&gt;" class="cls-2" d="M86.91,25.2h-.42a.11.11,0,0,0-.12.12v4.77a.9.9,0,0,1-.2.65.89.89,0,0,1-.65.21H82.89a.1.1,0,0,0-.12.12v.41c0,.08,0,.12.12.12h2.63A1.39,1.39,0,0,0,87,30.09V25.32C87,25.24,87,25.2,86.91,25.2Z"/><path id="_Path_24" data-name="&lt;Path&gt;" class="cls-2" d="M84.25,25.91c-.08,0-.12,0-.12.12v4.07a.11.11,0,0,0,.12.12h.41a.11.11,0,0,0,.12-.12V26q0-.12-.12-.12Z"/><path id="_Path_25" data-name="&lt;Path&gt;" class="cls-2" d="M83.34,25.45h.06a.08.08,0,0,0,.05,0l0-.08a.42.42,0,0,1,.36-.21h0a2.49,2.49,0,0,1,.58.11,2.76,2.76,0,0,0,.65.12h0a.7.7,0,0,0,.58-.26l.06-.07a.09.09,0,0,0,0-.06.07.07,0,0,0,0-.06l-.15-.12-.06,0a.08.08,0,0,0-.06,0l-.06.07a.38.38,0,0,1-.31.13h0a2.82,2.82,0,0,1-.54-.1,2.84,2.84,0,0,0-.69-.12h0a.73.73,0,0,0-.62.38l0,.08a.11.11,0,0,0,0,.05.08.08,0,0,0,0,.06Z"/><path id="_Path_26" data-name="&lt;Path&gt;" class="cls-2" d="M89,25.2h-.42a.1.1,0,0,0-.12.12v6.16a.1.1,0,0,0,.12.12H89c.07,0,.11,0,.11-.12V25.31C89.1,25.24,89.06,25.2,89,25.2Z"/><path id="_Path_27" data-name="&lt;Path&gt;" class="cls-2" d="M96,32.38h-.43a.11.11,0,0,0-.12.12V33q0,.12.12.12H96q.12,0,.12-.12V32.5A.11.11,0,0,0,96,32.38Z"/><path id="_Path_28" data-name="&lt;Path&gt;" class="cls-2" d="M106.2,27.36h-.42c-.15,0-.16.06-.16.12v3a.5.5,0,0,1-.1.36.45.45,0,0,1-.33.12h-.56a.71.71,0,0,1-.47-.12.36.36,0,0,1-.08-.24V27.72c0-.06,0-.12-.16-.12h-.42c-.15,0-.16.06-.16.12v2.75a.52.52,0,0,1-.13.38.4.4,0,0,1-.3.1h-.57a.66.66,0,0,1-.48-.13.31.31,0,0,1-.08-.23V27.48c0-.06,0-.12-.16-.12h-.41c-.15,0-.16.06-.16.12v3a.51.51,0,0,1-.12.38.37.37,0,0,1-.26.1H99.17a.75.75,0,0,1-.52-.14.29.29,0,0,1-.08-.23v-3.1c0-.08,0-.12-.12-.12H98a.1.1,0,0,0-.12.12v3a.5.5,0,0,1-.12.37.52.52,0,0,1-.36.11H94.35a1.26,1.26,0,0,1-1.27-1.27,1.28,1.28,0,0,1,.19-.68,1.33,1.33,0,0,1,.52-.49l.19-.09a.11.11,0,0,0,.07-.1.14.14,0,0,0,0-.06l-.19-.37a.11.11,0,0,0-.07-.06h-.09l-.18.1a2,2,0,0,0-1.07,1.75A1.87,1.87,0,0,0,93,31a1.84,1.84,0,0,0,1.35.56h3.1a1.12,1.12,0,0,0,.83-.31l0,0h0a1.31,1.31,0,0,0,1,.33h1.34a1.19,1.19,0,0,0,.86-.31l.11-.11,0,.15c0,.21.38.27.7.27h.58c.46,0,.71-.12.77-.36l0-.19.11.17h0l0,0,.06.11c.09.23.5.28.83.29h.44a1.22,1.22,0,0,0,.88-.32,1.1,1.1,0,0,0,.31-.81v-3C106.36,27.42,106.35,27.36,106.2,27.36Z"/><path id="_Path_29" data-name="&lt;Path&gt;" class="cls-2" d="M117,25.2h-.42a.11.11,0,0,0-.12.12v5.15a.51.51,0,0,1-.12.36A.48.48,0,0,1,116,31h-1.24a.75.75,0,0,1-.52-.14.3.3,0,0,1-.08-.22V29.24a2.05,2.05,0,0,0-2-2,2.26,2.26,0,0,0-2,.93l-.12.17a.13.13,0,0,0,0,.06v0a.12.12,0,0,0,0,.08l.34.24.07,0a.11.11,0,0,0,.09-.06l.12-.17a1.62,1.62,0,0,1,1.42-.66,1.4,1.4,0,0,1,1.4,1.4v.85a.74.74,0,0,1-.86.86h-4a.49.49,0,0,1-.35-.12.51.51,0,0,1-.11-.36V25.32a.11.11,0,0,0-.12-.12h-.41c-.08,0-.12,0-.12.12v5.15a1.05,1.05,0,0,0,1.12,1.13h3.94a1.46,1.46,0,0,0,1.15-.45l.1.12a1.33,1.33,0,0,0,1,.32H116a1.05,1.05,0,0,0,1.13-1.13V25.32C117.14,25.24,117.1,25.2,117,25.2Z"/><path id="_Path_30" data-name="&lt;Path&gt;" class="cls-2" d="M119.11,25.2h-.42a.1.1,0,0,0-.12.12v6.16a.1.1,0,0,0,.12.12h.42c.07,0,.11,0,.11-.12V25.31C119.22,25.24,119.18,25.2,119.11,25.2Z"/><path id="_Path_31" data-name="&lt;Path&gt;" class="cls-2" d="M125.23,27.08h.44c.08,0,.12,0,.12-.12v-.47c0-.08,0-.12-.12-.12h-.44a.11.11,0,0,0-.12.12V27A.11.11,0,0,0,125.23,27.08Z"/><path id="_Path_32" data-name="&lt;Path&gt;" class="cls-2" d="M126.41,27.08h.44c.08,0,.12,0,.12-.12v-.47c0-.08,0-.12-.12-.12h-.44c-.08,0-.12,0-.12.12V27C126.29,27,126.33,27.08,126.41,27.08Z"/><path id="_Path_33" data-name="&lt;Path&gt;" class="cls-2" d="M128.57,27.36h-.42c-.07,0-.11,0-.11.12v3a.49.49,0,0,1-.12.36.5.5,0,0,1-.36.12h-3.09a1.28,1.28,0,0,1-1.27-1.27,1.32,1.32,0,0,1,.72-1.17l.18-.1a.11.11,0,0,0,.06-.06.09.09,0,0,0,0,0,.09.09,0,0,0,0-.05l-.19-.37a.12.12,0,0,0-.07-.06h-.09l-.19.09a2,2,0,0,0-1.07,1.75,1.92,1.92,0,0,0,1.92,1.92h3.1a1.13,1.13,0,0,0,.82-.3,1.12,1.12,0,0,0,.31-.83v-3A.1.1,0,0,0,128.57,27.36Z"/><path id="_Compound_Path_29" data-name="&lt;Compound Path&gt;" class="cls-2" d="M134.76,27.19a1.87,1.87,0,0,0-1.87,1.87v1.89h-1.67a.49.49,0,0,1-.35-.12.51.51,0,0,1-.11-.36V25.32a.11.11,0,0,0-.12-.12h-.41c-.08,0-.12,0-.12.12v5.15a1.05,1.05,0,0,0,1.12,1.13h3.52a1.88,1.88,0,0,0,1.87-1.87v-.67a1.88,1.88,0,0,0-1.87-1.87ZM136,29.73a1.23,1.23,0,0,1-1.22,1.22h-1.22V29.06a1.23,1.23,0,0,1,1.22-1.22,1.18,1.18,0,0,1,.87.36,1.17,1.17,0,0,1,.36.86Z"/><rect id="_Path_34" data-name="&lt;Path&gt;" class="cls-2" x="144.87" y="25.56" width="0.67" height="0.76" rx="0.12" ry="0.12"/><path id="_Path_35" data-name="&lt;Path&gt;" class="cls-2" d="M150.21,25.2h-.42c-.08,0-.12,0-.12.12v5.15a.51.51,0,0,1-.12.36.48.48,0,0,1-.35.12H148a.75.75,0,0,1-.52-.14.31.31,0,0,1-.07-.22V29.24a2.05,2.05,0,0,0-2.05-2,2.26,2.26,0,0,0-1.94.93l-.12.17a.14.14,0,0,0,0,.08.11.11,0,0,0,.05.09l.33.24.08,0a.11.11,0,0,0,.09-.05l.13-.17a1.64,1.64,0,0,1,1.42-.67,1.35,1.35,0,0,1,1,.41,1.34,1.34,0,0,1,.41,1v.85a.88.88,0,0,1-.21.65.89.89,0,0,1-.65.21h-3.94a.64.64,0,0,1-.48-.16.43.43,0,0,1-.13-.32V28.79a1.6,1.6,0,0,0-1.6-1.6,2.08,2.08,0,0,0-1.22.32l-.16.12a.12.12,0,0,0-.05.08v0a.09.09,0,0,0,0,.06l.24.34a.1.1,0,0,0,.08,0h0l.07,0,.17-.12a1.46,1.46,0,0,1,.84-.2,1,1,0,0,1,1,.95v1.42a.74.74,0,0,1-.16.55,1,1,0,0,1-.7.19h-1.9c-.08,0-.12,0-.12.12v.41a.1.1,0,0,0,.12.12h1.9a1.53,1.53,0,0,0,1.21-.45l.07.1a1.27,1.27,0,0,0,.93.35h3.82a1.46,1.46,0,0,0,1.15-.45l.1.12a1.31,1.31,0,0,0,1,.32h1.12a1.13,1.13,0,0,0,.82-.3,1.12,1.12,0,0,0,.31-.83V25.32C150.32,25.24,150.29,25.2,150.21,25.2Z"/></g></g></g></g></svg>